<svg xmlns="http://www.w3.org/2000/svg" fill="none" viewBox="0 0 54 54"><path d="M27.8 26.235a4.85 4.85 0 0 1 3.394 1.379A4.66 4.66 0 0 1 32.6 30.94v4.706H23V30.94a4.66 4.66 0 0 1 1.406-3.327 4.85 4.85 0 0 1 3.394-1.379zm0-3.529c1.326 0 2.4-1.054 2.4-2.353 0-1.3-1.074-2.353-2.4-2.353-1.325 0-2.4 1.053-2.4 2.353 0 1.3 1.075 2.353 2.4 2.353m-8.4 12.941a2.425 2.425 0 0 1-1.697-.69A2.33 2.33 0 0 1 17 33.295v-1.47c0-.823.291-1.62.826-2.253a3.615 3.615 0 0 1 2.102-1.218m.672-3.295c.663 0 1.2-.527 1.2-1.177s-.537-1.176-1.2-1.176c-.662 0-1.2.527-1.2 1.176 0 .65.538 1.177 1.2 1.177m15.6 10.588c.636 0 1.247-.248 1.697-.69a2.33 2.33 0 0 0 .703-1.663v-1.47c0-.823-.291-1.62-.826-2.253a3.615 3.615 0 0 0-2.102-1.218M35 25.059c.663 0 1.2-.527 1.2-1.177s-.538-1.176-1.2-1.176c-.663 0-1.2.527-1.2 1.176 0 .65.537 1.177 1.2 1.177"/></svg>