<svg xmlns="http://www.w3.org/2000/svg" viewBox="0 0 32 32"><path d="M9.15 22.582c-.647 0-1.15-.489-1.15-1.136v-10.31C8 10.489 8.503 10 9.15 10c.647 0 1.15.489 1.15 1.136v10.31c0 .647-.503 1.136-1.15 1.136m2.397-6.284c0-.676.49-1.164 1.194-1.164h5.536l2.315.158-2.33-2.042-.905-.892a1.13 1.13 0 0 1-.36-.863c0-.647.489-1.107 1.15-1.107.288 0 .59.1.835.36l4.644 4.688c.23.23.374.532.374.862 0 .345-.13.647-.374.877l-4.63 4.66c-.23.23-.575.359-.848.359-.69 0-1.15-.46-1.15-1.107 0-.374.128-.633.359-.849l.905-.863 2.344-2.07-2.33.172h-5.535c-.705 0-1.194-.46-1.194-1.179"/></svg>