<svg
	xmlns="http://www.w3.org/2000/svg"
	fill="none"
	viewBox="0 0 54 54"
>
	<path
		d="M28.2 34.83c-.13 0-.26-.02-.38-.07a1.19 1.19 0 0 1-.33-.22.988.988 0 0 1-.21-.32.88.88 0 0 1-.08-.39c0-.13.02-.26.08-.38a.988.988 0 0 1 1.62-.32c.18.19.29.44.29.7a1.004 1.004 0 0 1-1 1z"
	/>
	<path
		d="M23.9 23.66h8.6m-8.6 5.09h8.6"
		class="focus"
	/>
	<path
		d="M34.03 16H22.37A2.37 2.37 0 0 0 20 18.37v16.91a2.37 2.37 0 0 0 2.37 2.37h11.66a2.37 2.37 0 0 0 2.37-2.37V18.37A2.37 2.37 0 0 0 34.03 16"
	/>
	<path d="m23.52 16.18 2.57 2.33h4.21l2.58-2.33z" />
</svg>
