<svg xmlns="http://www.w3.org/2000/svg" fill="none" viewBox="0 0 54 54"><path d="M22.889 21h9.777m-9.777 4.8h9.777" class="focus"/><path d="M35.111 16.2H20.444c-1.35 0-2.444 1.075-2.444 2.4v16.8c0 1.326 1.094 2.4 2.444 2.4h14.667c1.35 0 2.445-1.074 2.445-2.4V18.6c0-1.325-1.095-2.4-2.445-2.4"/><path d="M18 30.6h5.5c.486 0 .953.19 1.296.527.344.338.537.796.537 1.273 0 .478.194.935.537 1.273.344.338.81.527 1.297.527h1.222c.486 0 .952-.19 1.296-.527.344-.338.537-.795.537-1.273 0-.477.193-.935.537-1.273a1.85 1.85 0 0 1 1.297-.527h5.5"/></svg>