<?xml version="1.0" encoding="UTF-8"?>
<svg xmlns="http://www.w3.org/2000/svg" xmlns:xlink="http://www.w3.org/1999/xlink" width="0" height="0">
<defs>
<symbol viewBox="0 0 32 32" id="expand"><path d="M9.15 22.582c-.647 0-1.15-.489-1.15-1.136v-10.31C8 10.489 8.503 10 9.15 10c.647 0 1.15.489 1.15 1.136v10.31c0 .647-.503 1.136-1.15 1.136m2.397-6.284c0-.676.49-1.164 1.194-1.164h5.536l2.315.158-2.33-2.042-.905-.892a1.13 1.13 0 0 1-.36-.863c0-.647.489-1.107 1.15-1.107.288 0 .59.1.835.36l4.644 4.688c.23.23.374.532.374.862 0 .345-.13.647-.374.877l-4.63 4.66c-.23.23-.575.359-.848.359-.69 0-1.15-.46-1.15-1.107 0-.374.128-.633.359-.849l.905-.863 2.344-2.07-2.33.172h-5.535c-.705 0-1.194-.46-1.194-1.179"></path></symbol>
<symbol viewBox="0 0 22 24" id="icon-1"><path d="M10.78 0c-.784 0-1.545.27-2.156.761L1.29 6.667A3.458 3.458 0 0 0 0 9.366v10.717a3.47 3.47 0 0 0 1.007 2.445 3.438 3.438 0 0 0 2.438 1.016H5.89a1 1 0 0 0 0-2H3.445c-.382 0-.748-.152-1.02-.426A1.466 1.466 0 0 1 2 20.082V9.367a1.473 1.473 0 0 1 .545-1.141L9.879 2.32a1.435 1.435 0 0 1 1.801 0h.001l7.334 5.906a1.459 1.459 0 0 1 .545 1.14v10.717c0 .39-.154.761-.426 1.035a1.436 1.436 0 0 1-1.02.426H15.67a1 1 0 1 0 0 2h2.444a3.44 3.44 0 0 0 2.44-1.016 3.47 3.47 0 0 0 1.006-2.445V9.365a3.474 3.474 0 0 0-1.29-2.697v-.001L12.935.76A3.436 3.436 0 0 0 10.78 0"></path><path d="M10.664 11c-.265 0-.52.098-.707.272a.896.896 0 0 0-.293.656v2.497H7c-.265 0-.52.098-.707.272a.896.896 0 0 0-.293.656.87.87 0 0 0 .076.355c.05.112.124.215.217.3.093.087.203.155.324.202.121.047.251.07.383.07h2.664v5.921c0 .246.106.482.293.656.188.174.442.272.707.272.265 0 .52-.098.707-.272a.895.895 0 0 0 .292-.656v-5.92h2.667a1.034 1.034 0 0 0 .707-.272.927.927 0 0 0 .217-.301.872.872 0 0 0 0-.71.926.926 0 0 0-.217-.301 1.007 1.007 0 0 0-.325-.202 1.066 1.066 0 0 0-.382-.07h-2.667v-2.497a.896.896 0 0 0-.292-.656 1.04 1.04 0 0 0-.707-.272" class="focus"></path></symbol>
</defs>
</svg>