<?xml version="1.0" encoding="UTF-8"?>
<svg xmlns="http://www.w3.org/2000/svg" xmlns:xlink="http://www.w3.org/1999/xlink" width="0" height="0">
<defs>
<symbol fill="none" viewBox="0 0 54 54" id="dinner-parties"><path d="M27.8 26.235a4.85 4.85 0 0 1 3.394 1.379A4.66 4.66 0 0 1 32.6 30.94v4.706H23V30.94a4.66 4.66 0 0 1 1.406-3.327 4.85 4.85 0 0 1 3.394-1.379zm0-3.529c1.326 0 2.4-1.054 2.4-2.353 0-1.3-1.074-2.353-2.4-2.353-1.325 0-2.4 1.053-2.4 2.353 0 1.3 1.075 2.353 2.4 2.353m-8.4 12.941a2.425 2.425 0 0 1-1.697-.69A2.33 2.33 0 0 1 17 33.295v-1.47c0-.823.291-1.62.826-2.253a3.615 3.615 0 0 1 2.102-1.218m.672-3.295c.663 0 1.2-.527 1.2-1.177s-.537-1.176-1.2-1.176c-.662 0-1.2.527-1.2 1.176 0 .65.538 1.177 1.2 1.177m15.6 10.588c.636 0 1.247-.248 1.697-.69a2.33 2.33 0 0 0 .703-1.663v-1.47c0-.823-.291-1.62-.826-2.253a3.615 3.615 0 0 0-2.102-1.218M35 25.059c.663 0 1.2-.527 1.2-1.177s-.538-1.176-1.2-1.176c-.663 0-1.2.527-1.2 1.176 0 .65.537 1.177 1.2 1.177"></path></symbol>
<symbol fill="none" viewBox="0 0 54 54" id="events"><path d="M36.09 19h-16.7A2.39 2.39 0 0 0 17 21.39v11.92a2.39 2.39 0 0 0 2.39 2.39h16.7a2.39 2.39 0 0 0 2.39-2.39V21.39A2.39 2.39 0 0 0 36.09 19"></path><path d="M37.54 21.18H17.87l.6-1.63 18.72-.28zm-3.28 4.09h-5.07v2.54h5.07z"></path></symbol>
<symbol fill="none" viewBox="0 0 32 32" id="expand"><path stroke-linecap="round" stroke-width="2" d="M30 16H2M30 4H20m10 6H16m4 18h10m-14-6h14M2 15.586 11.586 6m0 20L2 16.414"></path></symbol>
<symbol fill="none" viewBox="0 0 54 54" id="home-feed"><path d="M28.2 34.83c-.13 0-.26-.02-.38-.07a1.19 1.19 0 0 1-.33-.22.988.988 0 0 1-.21-.32.88.88 0 0 1-.08-.39c0-.13.02-.26.08-.38a.988.988 0 0 1 1.62-.32c.18.19.29.44.29.7a1.004 1.004 0 0 1-1 1zm-4.3-11.17h8.6m-8.6 5.09h8.6"></path><path d="M34.03 16H22.37A2.37 2.37 0 0 0 20 18.37v16.91a2.37 2.37 0 0 0 2.37 2.37h11.66a2.37 2.37 0 0 0 2.37-2.37V18.37A2.37 2.37 0 0 0 34.03 16"></path><path d="m23.52 16.18 2.57 2.33h4.21l2.58-2.33z"></path></symbol>
<symbol fill="none" viewBox="0 0 54 54" id="home"><path d="M22.889 37.77h-2.445c-.648 0-1.27-.26-1.728-.721a2.468 2.468 0 0 1-.716-1.74V24.595a2.472 2.472 0 0 1 .917-1.92l7.333-5.904a2.435 2.435 0 0 1 3.056 0l7.333 5.905a2.459 2.459 0 0 1 .917 1.919v10.714a2.47 2.47 0 0 1-.716 1.74c-.459.461-1.08.72-1.729.72h-2.444m-8.556-7.38h7.334m-3.668-3.691V37.77"></path></symbol>
<symbol fill="none" viewBox="0 0 54 54" id="inbox"><path d="M22.889 21h9.777m-9.777 4.8h9.777m2.445-9.6H20.444c-1.35 0-2.444 1.075-2.444 2.4v16.8c0 1.326 1.094 2.4 2.444 2.4h14.667c1.35 0 2.445-1.074 2.445-2.4V18.6c0-1.325-1.095-2.4-2.445-2.4"></path><path d="M18 30.6h5.5c.486 0 .953.19 1.296.527.344.338.537.796.537 1.273 0 .478.194.935.537 1.273.344.338.81.527 1.297.527h1.222c.486 0 .952-.19 1.296-.527.344-.338.537-.795.537-1.273 0-.477.193-.935.537-1.273a1.85 1.85 0 0 1 1.297-.527h5.5"></path></symbol>
<symbol fill="none" viewBox="0 0 54 54" id="members"><path d="M32.38 32.244A4.8 4.8 0 0 0 28 29.4a4.8 4.8 0 0 0-4.38 2.844M28 25.8a2.4 2.4 0 1 0 0-4.8 2.4 2.4 0 0 0 0 4.8"></path><path d="M28 37.8c5.965 0 10.8-4.835 10.8-10.8 0-5.965-4.835-10.8-10.8-10.8-5.965 0-10.8 4.835-10.8 10.8 0 5.965 4.835 10.8 10.8 10.8"></path></symbol>
<symbol fill="none" viewBox="0 0 54 54" id="reports"><path d="M20 34.43v-4.25m5.33 4.25v-7.36m5.34 7.36v-4.25M36 34.43v-9.12m-16-1 5.33-3.65 5.34 3.2L36 19"></path></symbol>
<symbol fill="none" viewBox="0 0 54 54" id="resources"><path d="M36 16.333H20A2.667 2.667 0 0 0 17.333 19v16A2.667 2.667 0 0 0 20 37.666h16A2.667 2.667 0 0 0 38.666 35V19A2.667 2.667 0 0 0 36 16.333"></path><path d="M22.666 22c1.773 0 1.773 2 3.547 2 1.773 0 1.786-2 3.56-2 1.773 0 1.786 2 3.56 2m-10.667 6c1.773 0 1.773 2 3.547 2 1.773 0 1.786-2 3.56-2 1.773 0 1.786 2 3.56 2"></path></symbol>
<symbol fill="none" viewBox="0 0 54 54" id="service"><path d="m36 27-.827 3.32a2.666 2.666 0 0 1-2.586 2.013h-9.174a2.667 2.667 0 0 1-2.586-2.013L20 27m-2.667 0h21.333m-12 6.667v4h2.667v-4M32 23h-8m4-4a1.333 1.333 0 1 0 0-2.667A1.333 1.333 0 0 0 28 19"></path></symbol>
</defs>
</svg>